<svg width="501" height="139" viewBox="0 0 501 139" fill="none" xmlns="http://www.w3.org/2000/svg">
<path d="M229.226 137.212V136.748C229.226 136.748 234.62 135.937 234.62 132.283V95.7425C234.562 92.0885 229.168 91.2765 229.168 91.2765V90.8125C234.156 91.7985 244.132 91.9725 250.048 90.8125V91.2765C250.048 91.2765 244.654 92.0885 244.712 95.7425V132.283C244.712 136.053 248.192 136.285 249.7 136.285C266.114 136.285 268.144 120.741 268.144 120.741H268.666L266.288 137.212H229.226Z" fill="#2E4052"/>
<path d="M221.456 131.993C222.848 135.531 227.083 136.749 227.083 136.749V137.213C221.689 136.517 211.248 136.575 205.796 137.213V136.749C205.796 136.749 211.945 135.821 210.553 132.457L206.84 122.945H193.152L191.471 127.353C188.165 135.705 197.966 136.749 197.966 136.749V137.213C192.688 136.691 185.207 136.575 179.812 137.213V136.749C186.251 136.575 190.542 126.889 190.542 126.889L199.475 104.559C198.663 103.225 197.851 102.587 196.691 102.587L196.516 102.239C199.068 100.383 199.532 99.2226 201.156 96.7286C202.374 94.8726 204.346 89.9426 204.346 89.9426L204.753 89.7686L221.456 131.993ZM199.939 105.545L193.501 122.017H206.492L200.229 106.125C200.113 105.893 200.055 105.719 199.939 105.545Z" fill="#2E4052"/>
<path d="M155.001 137.212V136.748C155.001 136.748 160.395 135.936 160.395 132.282V91.9145C146.997 93.0165 143.517 106.124 143.517 106.124H143.053L146.069 90.0005C146.069 90.0005 148.389 90.8125 165.557 90.8125C182.725 90.8125 184.929 90.0005 184.929 90.0005L187.945 106.124H187.481C187.481 106.124 183.943 92.9585 170.487 91.9145V132.282C170.487 135.994 175.823 136.748 175.823 136.748V137.212C170.487 135.994 160.453 136.11 155.001 137.212Z" fill="#2E4052"/>
<path d="M125.472 132.283V95.7425C125.472 92.0885 120.078 91.2765 120.078 91.2765V90.8125C125.53 91.9145 135.564 92.0885 140.958 90.8125V91.2765C140.958 91.2765 135.564 92.0885 135.564 95.7425V132.283C135.564 135.995 140.958 136.748 140.958 136.748V137.212C135.506 136.052 125.472 136.168 120.078 137.212V136.748C120.078 136.748 125.472 135.937 125.472 132.283Z" fill="#2E4052"/>
<path d="M95.5595 115.636C101.012 116.738 112.67 116.854 118.006 115.636V116.1C118.006 116.1 113.946 116.854 113.714 120.276V137.502H113.192C113.192 137.502 112.67 133.5 111.046 133.5C108.32 133.5 103.622 138.082 96.2555 138.082C86.1055 138.082 73.5775 128.802 73.5195 113.664C73.5775 95.6264 91.8475 89.9424 96.2555 89.9424C103.738 89.9424 108.726 93.9444 110.756 93.9444C113.192 93.9444 113.192 90.6384 113.192 90.6384H113.714V108.85H113.192C113.192 104.384 106.986 90.9284 96.2555 90.9284C84.4815 90.9284 84.4815 105.428 84.4815 113.374C84.4815 123.698 84.1915 137.096 96.1975 137.096C99.0975 137.096 101.534 136.342 103.622 135.066V120.566C103.622 117.55 95.5595 116.1 95.5595 116.1V115.636Z" fill="#2E4052"/>
<path d="M55.0112 132.283V95.7425C55.0112 92.0885 49.6172 91.2765 49.6172 91.2765V90.8125C55.0692 91.9145 65.1032 92.0885 70.4972 90.8125V91.2765C70.4972 91.2765 65.1032 92.0885 65.1032 95.7425V132.283C65.1032 135.995 70.4972 136.748 70.4972 136.748V137.212C65.0452 136.052 55.0112 136.168 49.6172 137.212V136.748C49.6172 136.748 55.0112 135.937 55.0112 132.283Z" fill="#2E4052"/>
<path d="M15.486 92.2625V132.283C15.428 136.053 18.966 136.285 20.416 136.285C27.26 136.285 34.974 134.66 34.974 113.084C34.974 95.5685 26.506 91.7985 20.3 91.7985C16.762 91.7985 15.486 92.2625 15.486 92.2625ZM15.486 91.2185C17.4 91.0445 18.038 90.8705 20.3 90.8125C31.32 90.8125 46.458 95.5685 46.458 112.853C46.458 130.369 35.264 137.212 20.416 137.212C18.908 137.212 17.4 137.038 15.776 136.864C15.718 136.806 15.66 136.806 15.602 136.806C13.978 136.574 12.354 136.4 10.73 136.342C6.786 136.342 2.784 136.69 0 137.212V136.748C0 136.748 5.336 135.937 5.394 132.283V95.7425C5.394 92.0885 0 91.2765 0 91.2765V90.8125C2.726 91.3345 6.438 91.6245 10.15 91.6245C12.122 91.6245 13.862 91.4505 15.486 91.2185Z" fill="#2E4052"/>
<path d="M467.879 47.2125V46.7485C467.879 46.7485 473.273 45.9365 473.273 42.2825V1.91449C459.875 3.01649 456.395 16.1245 456.395 16.1245H455.931L458.947 0.000488281C458.947 0.000488281 461.267 0.812487 478.435 0.812487C495.603 0.812487 497.807 0.000488281 497.807 0.000488281L500.823 16.1245H500.359C500.359 16.1245 496.821 2.95849 483.365 1.91449V42.2825C483.365 45.9945 488.701 46.7485 488.701 46.7485V47.2125C483.365 45.9945 473.331 46.1105 467.879 47.2125Z" fill="#2E4052"/>
<path d="M438.832 0.870501C438.832 0.870501 446.605 2.6105 454.783 0.870501V1.3345C454.783 1.3345 447.301 2.9005 447.301 8.9325C447.301 19.3725 447.301 29.8125 447.301 40.2525V47.7925H446.836L412.21 7.9465C412.21 18.3285 412.21 28.7105 412.21 39.1505C412.21 45.1825 419.693 46.7485 419.693 46.7485V47.2125C410.993 45.2405 403.684 47.8505 403.742 47.2125V46.7485C403.742 46.7485 411.167 45.1825 411.167 39.1505V6.7865L409.31 4.6405C409.31 4.6405 406.41 1.4505 402.292 1.3925V0.8125C409.832 1.9145 415.459 1.8565 420.447 0.8125L446.257 31.0885L446.314 8.9325C446.314 2.9005 438.832 1.3345 438.832 1.3345V0.870501Z" fill="#2E4052"/>
<path d="M377.557 1.13882C370.681 1.25462 366.335 6.11831 366.335 24.7625C366.335 42.0749 372.238 47.286 377.557 47.286C382.876 47.286 388.649 42.2486 388.649 24.9362C388.649 6.29201 384.498 1.25462 377.557 1.13882ZM377.557 48.2124C364.844 48.2124 353.492 40.8011 353.492 24.5309C353.492 7.27633 368.152 0.212402 377.557 0.212402C387.027 0.212402 401.492 7.45004 401.492 24.7046C401.492 40.9748 390.271 48.2124 377.557 48.2124Z" fill="#2E4052"/>
<path d="M324.302 2.3205V26.3325L325.636 26.3905C325.81 26.3325 326.216 26.3325 326.738 26.3325C331.9 25.7525 337.004 19.4885 337.004 13.2825C336.888 7.8305 335.38 1.7985 329.174 1.7985C326.1 1.7985 324.534 2.2625 324.302 2.3205ZM324.244 1.2765C326.216 1.1025 326.854 0.928499 329.174 0.8125C336.308 0.8125 347.27 3.5965 347.27 13.3405C347.27 22.0985 339.034 25.2885 332.77 26.3905C336.83 26.7965 342.05 29.1745 346.284 38.3965C348.314 43.0365 349.764 46.7485 353.128 46.7485V47.2125C348.546 46.0525 342.862 46.0525 337.642 47.2125V46.7485L338.512 46.5165C338.976 46.4005 339.324 45.8205 338.686 44.6025C330.566 29.0005 331.378 27.0285 325.462 27.0865H324.302V42.3405C324.302 45.9945 329.696 46.7485 329.696 46.7485V47.2125C324.302 45.9945 314.268 46.1105 308.816 47.2125V46.7485C308.816 46.7485 314.152 45.9945 314.21 42.3405V5.8005C314.21 2.1465 308.816 1.3345 308.816 1.3345V0.870501C311.484 1.3925 315.196 1.6825 318.908 1.6825C320.88 1.6825 322.62 1.5085 324.244 1.2765Z" fill="#2E4052"/>
<path d="M271.549 42.2825L271.491 5.7425C271.491 2.0885 266.097 1.2765 266.097 1.2765V0.8125C268.823 1.3345 272.651 1.6245 276.363 1.6245C278.335 1.6245 280.017 1.4505 281.641 1.2185C281.641 1.2185 281.641 1.2185 281.699 1.2185C283.555 1.0445 284.193 0.9285 286.455 0.870501C294.169 0.870501 301.825 2.4945 301.825 2.4945L306.291 14.2685H305.711C305.711 14.2685 298.867 1.8565 286.455 1.8565C283.323 1.8565 281.931 2.1465 281.641 2.2045V23.6645H283.381C283.381 23.6645 295.387 23.6645 295.387 12.8185H295.909V35.4965H295.387C295.387 24.6505 283.381 24.6505 283.381 24.6505H281.641V42.2825C281.583 45.9945 287.035 46.7485 287.035 46.7485V47.2125C281.525 46.0525 271.491 46.1105 266.155 47.2125V46.7485C266.155 46.7485 271.549 45.9365 271.549 42.2825Z" fill="#2E4052"/>
<path d="M231.126 47.2125V46.7485C231.126 46.7485 236.52 45.9365 236.52 42.2825V1.91449C223.122 3.01649 219.642 16.1245 219.642 16.1245H219.178L222.194 0.000488281C222.194 0.000488281 224.514 0.812487 241.682 0.812487C258.85 0.812487 261.054 0.000488281 261.054 0.000488281L264.07 16.1245H263.606C263.606 16.1245 260.068 2.95849 246.612 1.91449V42.2825C246.612 45.9945 251.948 46.7485 251.948 46.7485V47.2125C246.612 45.9945 236.578 46.1105 231.126 47.2125Z" fill="#2E4052"/>
<path d="M194.468 0.870501C202.182 0.870501 209.838 2.4945 209.838 2.4945L214.304 14.2685H213.724C213.724 14.2685 206.88 1.8565 194.468 1.8565C191.51 1.8565 190.118 2.1465 189.77 2.2045V23.6645H191.51C191.51 23.6645 203.516 23.6645 203.516 12.8185H204.038V35.4965H203.516C203.516 24.6505 191.51 24.6505 191.51 24.6505H189.77V42.2825C189.712 46.0525 193.25 46.2845 194.7 46.2845C214.246 46.2845 216.334 30.8565 216.334 30.8565H216.856L214.42 47.2125H174.284V46.7485C174.284 46.7485 179.62 45.9365 179.62 42.2825L179.562 5.7425C179.562 2.0885 174.226 1.2765 174.226 1.2765V0.8125C176.952 1.3345 180.664 1.6245 184.376 1.6245C186.348 1.6245 188.088 1.4505 189.654 1.2765V1.2185C191.568 1.0445 192.206 0.9285 194.468 0.870501Z" fill="#2E4052"/>
<path d="M148.645 0.870501C156.359 0.870501 164.015 2.4945 164.015 2.4945L168.481 14.2685H167.901C167.901 14.2685 161.057 1.8565 148.645 1.8565C145.687 1.8565 144.295 2.1465 143.947 2.2045V23.6645H145.687C145.687 23.6645 157.693 23.6645 157.693 12.8185H158.215V35.4965H157.693C157.693 24.6505 145.687 24.6505 145.687 24.6505H143.947V42.2825C143.889 46.0525 147.427 46.2845 148.877 46.2845C168.423 46.2845 170.511 30.8565 170.511 30.8565H171.033L168.597 47.2125H128.461V46.7485C128.461 46.7485 133.797 45.9365 133.797 42.2825L133.739 5.7425C133.739 2.0885 128.403 1.2765 128.403 1.2765V0.8125C131.129 1.3345 134.841 1.6245 138.553 1.6245C140.525 1.6245 142.265 1.4505 143.831 1.2765V1.2185C145.745 1.0445 146.383 0.9285 148.645 0.870501Z" fill="#2E4052"/>
<path d="M97.5695 2.3205V26.3325L98.9035 26.3905C99.0775 26.3325 99.4835 26.3325 100.006 26.3325C105.168 25.7525 110.271 19.4885 110.271 13.2825C110.155 7.8305 108.647 1.7985 102.441 1.7985C99.3675 1.7985 97.8015 2.2625 97.5695 2.3205ZM97.5115 1.2765C99.4835 1.1025 100.121 0.928499 102.441 0.8125C109.575 0.8125 120.537 3.5965 120.537 13.3405C120.537 22.0985 112.301 25.2885 106.037 26.3905C110.097 26.7965 115.318 29.1745 119.551 38.3965C121.582 43.0365 123.031 46.7485 126.396 46.7485V47.2125C121.814 46.0525 116.13 46.0525 110.91 47.2125V46.7485L111.779 46.5165C112.243 46.4005 112.591 45.8205 111.953 44.6025C103.833 29.0005 104.645 27.0285 98.7295 27.0865H97.5695V42.3405C97.5695 45.9945 102.964 46.7485 102.964 46.7485V47.2125C97.5695 45.9945 87.5355 46.1105 82.0835 47.2125V46.7485C82.0835 46.7485 87.4195 45.9945 87.4775 42.3405V5.8005C87.4775 2.1465 82.0835 1.3345 82.0835 1.3345V0.870501C84.7515 1.3925 88.4635 1.6825 92.1755 1.6825C94.1475 1.6825 95.8875 1.5085 97.5115 1.2765Z" fill="#2E4052"/>
<path d="M46.5906 47.2125V46.7485C46.5906 46.7485 51.9846 45.9365 51.9846 42.2825V1.91449C38.5866 3.01649 35.1066 16.1245 35.1066 16.1245H34.6426L37.6586 0.000488281C37.6586 0.000488281 39.9786 0.812487 57.1466 0.812487C74.3146 0.812487 76.5186 0.000488281 76.5186 0.000488281L79.5346 16.1245H79.0706C79.0706 16.1245 75.5326 2.95849 62.0766 1.91449V42.2825C62.0766 45.9945 67.4126 46.7485 67.4126 46.7485V47.2125C62.0766 45.9945 52.0426 46.1105 46.5906 47.2125Z" fill="#2E4052"/>
<path d="M15.3701 0.986378C9.28009 0.928379 8.93209 5.74238 8.93209 8.00438C8.93209 20.1264 32.0161 16.8204 32.0161 33.4664C32.0161 41.4124 26.1001 48.0824 16.8201 48.0824C12.2961 48.0824 6.14809 45.0084 4.40809 45.0084C3.65409 45.0084 2.66809 45.7624 2.66809 47.2704C2.20409 47.3284 1.79809 47.2704 1.79809 47.2704C1.85609 41.3544 1.97209 35.4384 2.03009 29.5224H2.84209C4.69809 37.8164 11.3681 47.0384 16.8201 47.0384C22.4461 47.0964 24.0121 43.2684 24.0121 39.3244C24.0121 26.7384 1.39209 28.5944 1.39209 14.7324C1.39209 6.49638 7.48209 -0.0576207 15.6021 0.000382031C21.8661 0.000382031 23.4901 3.36438 25.8101 3.36438C27.6081 3.36438 27.7241 0.58038 27.7241 0.58038H28.1881L29.2321 15.8924H28.5361C28.5361 13.2244 21.1701 0.986378 15.3701 0.986378Z" fill="#2E4052"/>
</svg>
