<svg width="502" height="139" viewBox="0 0 502 139" fill="none" xmlns="http://www.w3.org/2000/svg">
<path d="M229.734 138V137.536C229.734 137.536 235.128 136.724 235.128 133.07V96.5301C235.07 92.8761 229.676 92.0641 229.676 92.0641V91.6001C234.664 92.5861 244.64 92.7601 250.556 91.6001V92.0641C250.556 92.0641 245.162 92.8761 245.22 96.5301V133.07C245.22 136.84 248.7 137.072 250.208 137.072C266.622 137.072 268.652 121.528 268.652 121.528H269.174L266.796 138H229.734Z" fill="#F2E5D7"/>
<path d="M221.964 132.78C223.356 136.318 227.59 137.536 227.59 137.536V138C222.196 137.304 211.756 137.362 206.304 138V137.536C206.304 137.536 212.452 136.608 211.06 133.244L207.348 123.732H193.66L191.978 128.14C188.672 136.492 198.474 137.536 198.474 137.536V138C193.196 137.478 185.714 137.362 180.32 138V137.536C186.758 137.362 191.05 127.676 191.05 127.676L199.982 105.346C199.17 104.012 198.358 103.374 197.198 103.374L197.024 103.026C199.576 101.17 200.04 100.01 201.664 97.5162C202.882 95.6602 204.854 90.7301 204.854 90.7301L205.26 90.5562L221.964 132.78ZM200.446 106.332L194.008 122.804H207L200.736 106.912C200.62 106.68 200.562 106.506 200.446 106.332Z" fill="#F2E5D7"/>
<path d="M155.509 138V137.536C155.509 137.536 160.903 136.724 160.903 133.07V92.7021C147.505 93.8041 144.025 106.912 144.025 106.912H143.561L146.577 90.7881C146.577 90.7881 148.897 91.6001 166.065 91.6001C183.233 91.6001 185.437 90.7881 185.437 90.7881L188.453 106.912H187.989C187.989 106.912 184.451 93.7461 170.995 92.7021V133.07C170.995 136.782 176.331 137.536 176.331 137.536V138C170.995 136.782 160.961 136.898 155.509 138Z" fill="#F2E5D7"/>
<path d="M125.98 133.07V96.5301C125.98 92.8761 120.586 92.0641 120.586 92.0641V91.6001C126.038 92.7021 136.072 92.8761 141.466 91.6001V92.0641C141.466 92.0641 136.072 92.8761 136.072 96.5301V133.07C136.072 136.782 141.466 137.536 141.466 137.536V138C136.014 136.84 125.98 136.956 120.586 138V137.536C120.586 137.536 125.98 136.724 125.98 133.07Z" fill="#F2E5D7"/>
<path d="M96.0673 116.424C101.519 117.526 113.177 117.642 118.513 116.424V116.888C118.513 116.888 114.453 117.642 114.221 121.064V138.29H113.699C113.699 138.29 113.177 134.288 111.553 134.288C108.827 134.288 104.129 138.87 96.7633 138.87C86.6133 138.87 74.0853 129.59 74.0273 114.452C74.0853 96.414 92.3553 90.73 96.7633 90.73C104.245 90.73 109.233 94.732 111.263 94.732C113.699 94.732 113.699 91.426 113.699 91.426H114.221V109.638H113.699C113.699 105.172 107.493 91.716 96.7633 91.716C84.9893 91.716 84.9893 106.216 84.9893 114.162C84.9893 124.486 84.6993 137.884 96.7053 137.884C99.6053 137.884 102.041 137.13 104.129 135.854V121.354C104.129 118.338 96.0673 116.888 96.0673 116.888V116.424Z" fill="#F2E5D7"/>
<path d="M55.519 133.07V96.5301C55.519 92.8761 50.125 92.0641 50.125 92.0641V91.6001C55.577 92.7021 65.611 92.8761 71.005 91.6001V92.0641C71.005 92.0641 65.611 92.8761 65.611 96.5301V133.07C65.611 136.782 71.005 137.536 71.005 137.536V138C65.553 136.84 55.519 136.956 50.125 138V137.536C50.125 137.536 55.519 136.724 55.519 133.07Z" fill="#F2E5D7"/>
<path d="M15.9938 93.0501V133.07C15.9358 136.84 19.4738 137.072 20.9238 137.072C27.7678 137.072 35.4818 135.448 35.4818 113.872C35.4818 96.3561 27.0138 92.5861 20.8078 92.5861C17.2698 92.5861 15.9938 93.0501 15.9938 93.0501ZM15.9938 92.0061C17.9078 91.8321 18.5458 91.6581 20.8078 91.6001C31.8278 91.6001 46.9658 96.3561 46.9658 113.64C46.9658 131.156 35.7718 138 20.9238 138C19.4158 138 17.9078 137.826 16.2838 137.652C16.2258 137.594 16.1678 137.594 16.1098 137.594C14.4858 137.362 12.8618 137.188 11.2378 137.13C7.29381 137.13 3.29181 137.478 0.507812 138V137.536C0.507812 137.536 5.84381 136.724 5.90181 133.07V96.5301C5.90181 92.8761 0.507812 92.0641 0.507812 92.0641V91.6001C3.23381 92.1221 6.94581 92.4121 10.6578 92.4121C12.6298 92.4121 14.3698 92.2381 15.9938 92.0061Z" fill="#F2E5D7"/>
<path d="M468.387 48.0001V47.5361C468.387 47.5361 473.781 46.7241 473.781 43.0701V2.70209C460.383 3.80409 456.903 16.9121 456.903 16.9121H456.439L459.455 0.788086C459.455 0.788086 461.775 1.60008 478.943 1.60008C496.111 1.60008 498.315 0.788086 498.315 0.788086L501.331 16.9121H500.867C500.867 16.9121 497.329 3.74609 483.873 2.70209V43.0701C483.873 46.7821 489.209 47.5361 489.209 47.5361V48.0001C483.873 46.7821 473.839 46.8981 468.387 48.0001Z" fill="#F2E5D7"/>
<path d="M439.34 1.6581C439.34 1.6581 447.112 3.3981 455.29 1.6581V2.1221C455.29 2.1221 447.808 3.6881 447.808 9.7201C447.808 20.1601 447.808 30.6001 447.808 41.0401V48.5801H447.344L412.718 8.7341C412.718 19.1161 412.718 29.4981 412.718 39.9381C412.718 45.9701 420.2 47.5361 420.2 47.5361V48.0001C411.5 46.0281 404.192 48.6381 404.25 48.0001V47.5361C404.25 47.5361 411.674 45.9701 411.674 39.9381V7.5741L409.818 5.4281C409.818 5.4281 406.918 2.2381 402.8 2.1801V1.6001C410.34 2.7021 415.966 2.64409 420.954 1.6001L446.764 31.8761L446.822 9.7201C446.822 3.6881 439.34 2.1221 439.34 2.1221V1.6581Z" fill="#F2E5D7"/>
<path d="M378.065 1.92641C371.189 2.04222 366.843 6.90591 366.843 25.5501C366.843 42.8625 372.746 48.0736 378.065 48.0736C383.384 48.0736 389.157 43.0362 389.157 25.7238C389.157 7.07961 385.005 2.04222 378.065 1.92641ZM378.065 49C365.351 49 354 41.5887 354 25.3185C354 8.06393 368.659 1 378.065 1C387.535 1 402 8.23764 402 25.4922C402 41.7624 390.778 49 378.065 49Z" fill="#F2E5D7"/>
<path d="M324.81 3.1081V27.1201L326.144 27.1781C326.318 27.1201 326.724 27.1201 327.246 27.1201C332.408 26.5401 337.512 20.2761 337.512 14.0701C337.396 8.6181 335.888 2.5861 329.682 2.5861C326.608 2.5861 325.042 3.0501 324.81 3.1081ZM324.752 2.0641C326.724 1.8901 327.362 1.7161 329.682 1.6001C336.816 1.6001 347.778 4.3841 347.778 14.1281C347.778 22.8861 339.542 26.0761 333.278 27.1781C337.338 27.5841 342.558 29.9621 346.792 39.1841C348.822 43.8241 350.272 47.5361 353.636 47.5361V48.0001C349.054 46.8401 343.37 46.8401 338.15 48.0001V47.5361L339.02 47.3041C339.484 47.1881 339.832 46.6081 339.194 45.3901C331.074 29.7881 331.886 27.8161 325.97 27.8741H324.81V43.1281C324.81 46.7821 330.204 47.5361 330.204 47.5361V48.0001C324.81 46.7821 314.776 46.8981 309.324 48.0001V47.5361C309.324 47.5361 314.66 46.7821 314.718 43.1281V6.5881C314.718 2.9341 309.324 2.1221 309.324 2.1221V1.6581C311.992 2.1801 315.704 2.4701 319.416 2.4701C321.388 2.4701 323.128 2.2961 324.752 2.0641Z" fill="#F2E5D7"/>
<path d="M272.056 43.0701L271.998 6.5301C271.998 2.8761 266.604 2.0641 266.604 2.0641V1.6001C269.33 2.1221 273.158 2.4121 276.87 2.4121C278.842 2.4121 280.524 2.2381 282.148 2.0061C282.148 2.0061 282.148 2.0061 282.206 2.0061C284.062 1.83209 284.7 1.7161 286.962 1.6581C294.676 1.6581 302.332 3.2821 302.332 3.2821L306.798 15.0561H306.218C306.218 15.0561 299.374 2.6441 286.962 2.6441C283.83 2.6441 282.438 2.9341 282.148 2.9921V24.4521H283.888C283.888 24.4521 295.894 24.4521 295.894 13.6061H296.416V36.2841H295.894C295.894 25.4381 283.888 25.4381 283.888 25.4381H282.148V43.0701C282.09 46.7821 287.542 47.5361 287.542 47.5361V48.0001C282.032 46.8401 271.998 46.8981 266.662 48.0001V47.5361C266.662 47.5361 272.056 46.7241 272.056 43.0701Z" fill="#F2E5D7"/>
<path d="M231.634 48.0001V47.5361C231.634 47.5361 237.028 46.7241 237.028 43.0701V2.70209C223.63 3.80409 220.15 16.9121 220.15 16.9121H219.686L222.702 0.788086C222.702 0.788086 225.022 1.60008 242.19 1.60008C259.358 1.60008 261.562 0.788086 261.562 0.788086L264.578 16.9121H264.114C264.114 16.9121 260.576 3.74609 247.12 2.70209V43.0701C247.12 46.7821 252.456 47.5361 252.456 47.5361V48.0001C247.12 46.7821 237.086 46.8981 231.634 48.0001Z" fill="#F2E5D7"/>
<path d="M194.975 1.6581C202.689 1.6581 210.345 3.2821 210.345 3.2821L214.811 15.0561H214.231C214.231 15.0561 207.387 2.6441 194.975 2.6441C192.017 2.6441 190.625 2.9341 190.277 2.9921V24.4521H192.017C192.017 24.4521 204.023 24.4521 204.023 13.6061H204.545V36.2841H204.023C204.023 25.4381 192.017 25.4381 192.017 25.4381H190.277V43.0701C190.219 46.8401 193.757 47.0721 195.207 47.0721C214.753 47.0721 216.841 31.6441 216.841 31.6441H217.363L214.927 48.0001H174.791V47.5361C174.791 47.5361 180.127 46.7241 180.127 43.0701L180.069 6.5301C180.069 2.8761 174.733 2.0641 174.733 2.0641V1.6001C177.459 2.1221 181.171 2.4121 184.883 2.4121C186.855 2.4121 188.595 2.2381 190.161 2.0641V2.0061C192.075 1.83209 192.713 1.7161 194.975 1.6581Z" fill="#F2E5D7"/>
<path d="M149.153 1.6581C156.867 1.6581 164.523 3.2821 164.523 3.2821L168.989 15.0561H168.409C168.409 15.0561 161.565 2.6441 149.153 2.6441C146.195 2.6441 144.803 2.9341 144.455 2.9921V24.4521H146.195C146.195 24.4521 158.201 24.4521 158.201 13.6061H158.723V36.2841H158.201C158.201 25.4381 146.195 25.4381 146.195 25.4381H144.455V43.0701C144.397 46.8401 147.935 47.0721 149.385 47.0721C168.931 47.0721 171.019 31.6441 171.019 31.6441H171.541L169.105 48.0001H128.969V47.5361C128.969 47.5361 134.305 46.7241 134.305 43.0701L134.247 6.5301C134.247 2.8761 128.911 2.0641 128.911 2.0641V1.6001C131.637 2.1221 135.349 2.4121 139.061 2.4121C141.033 2.4121 142.773 2.2381 144.339 2.0641V2.0061C146.253 1.83209 146.891 1.7161 149.153 1.6581Z" fill="#F2E5D7"/>
<path d="M98.0773 3.1081V27.1201L99.4113 27.1781C99.5853 27.1201 99.9913 27.1201 100.513 27.1201C105.675 26.5401 110.779 20.2761 110.779 14.0701C110.663 8.6181 109.155 2.5861 102.949 2.5861C99.8753 2.5861 98.3093 3.0501 98.0773 3.1081ZM98.0193 2.0641C99.9913 1.8901 100.629 1.7161 102.949 1.6001C110.083 1.6001 121.045 4.3841 121.045 14.1281C121.045 22.8861 112.809 26.0761 106.545 27.1781C110.605 27.5841 115.825 29.9621 120.059 39.1841C122.089 43.8241 123.539 47.5361 126.903 47.5361V48.0001C122.321 46.8401 116.637 46.8401 111.417 48.0001V47.5361L112.287 47.3041C112.751 47.1881 113.099 46.6081 112.461 45.3901C104.341 29.7881 105.153 27.8161 99.2373 27.8741H98.0773V43.1281C98.0773 46.7821 103.471 47.5361 103.471 47.5361V48.0001C98.0773 46.7821 88.0433 46.8981 82.5913 48.0001V47.5361C82.5913 47.5361 87.9273 46.7821 87.9853 43.1281V6.5881C87.9853 2.9341 82.5913 2.1221 82.5913 2.1221V1.6581C85.2593 2.1801 88.9713 2.4701 92.6833 2.4701C94.6553 2.4701 96.3953 2.2961 98.0193 2.0641Z" fill="#F2E5D7"/>
<path d="M47.0984 48.0001V47.5361C47.0984 47.5361 52.4924 46.7241 52.4924 43.0701V2.70209C39.0944 3.80409 35.6144 16.9121 35.6144 16.9121H35.1504L38.1664 0.788086C38.1664 0.788086 40.4864 1.60008 57.6544 1.60008C74.8224 1.60008 77.0264 0.788086 77.0264 0.788086L80.0424 16.9121H79.5784C79.5784 16.9121 76.0404 3.74609 62.5844 2.70209V43.0701C62.5844 46.7821 67.9204 47.5361 67.9204 47.5361V48.0001C62.5844 46.7821 52.5504 46.8981 47.0984 48.0001Z" fill="#F2E5D7"/>
<path d="M15.8779 1.77398C9.7879 1.71598 9.4399 6.52998 9.4399 8.79198C9.4399 20.914 32.5239 17.608 32.5239 34.254C32.5239 42.2 26.6079 48.87 17.3279 48.87C12.8039 48.87 6.6559 45.796 4.9159 45.796C4.1619 45.796 3.1759 46.55 3.1759 48.058C2.7119 48.116 2.3059 48.058 2.3059 48.058C2.3639 42.142 2.4799 36.226 2.5379 30.31H3.3499C5.2059 38.604 11.8759 47.826 17.3279 47.826C22.9539 47.884 24.5199 44.056 24.5199 40.112C24.5199 27.526 1.8999 29.382 1.8999 15.52C1.8999 7.28398 7.9899 0.729977 16.1099 0.78798C22.3739 0.78798 23.9979 4.15198 26.3179 4.15198C28.1159 4.15198 28.2319 1.36798 28.2319 1.36798H28.6959L29.7399 16.68H29.0439C29.0439 14.012 21.6779 1.77398 15.8779 1.77398Z" fill="#F2E5D7"/>
</svg>
